<?xml version="1.0" encoding="utf-8"?>
<!-- Generator: Adobe Illustrator 22.1.0, SVG Export Plug-In . SVG Version: 6.00 Build 0)  -->
<svg version="1.1" id="Layer_1" xmlns="http://www.w3.org/2000/svg" xmlns:xlink="http://www.w3.org/1999/xlink" x="0px" y="0px"
	 viewBox="0 0 2000 2000" style="enable-background:new 0 0 2000 2000;" xml:space="preserve">
<path fill="#99ffff" d="M1805.9,155.4c-13.4-0.7-26.9-1.3-40.1-1.8l-2.1-0.1c-7.6-0.3-15.1-0.6-22.7-0.9c-9.9-0.4-19.8-0.8-29.7-1.3
	c-9.5-0.4-19-0.9-28.5-1.3c-8.4-0.4-16.8-0.8-25.3-1.2c-8.3-0.4-16.6-0.7-24.9-1.1c-8.4-0.4-16.8-0.7-25.1-1.1
	c-25.2-1.1-50.5-2.3-75.7-3.5c-6.1-0.3-12.1-0.6-18.2-0.9c-11.5-0.6-23.4-1.2-35.2-1.6c-1.8-0.1-3.6-0.2-5.4-0.2
	c-8.8-0.4-18-0.9-27.3,0.6c-21.1,3.3-42.3,6.6-62.2,9.6c-9.4,1.4-18.9,2.9-28.4,4.3c-11.8,1.8-23.5,3.6-35.3,5.4
	c-9.8,1.5-19.6,3.1-29.3,4.6c-9.4,1.5-18.8,3-28.3,4.4c-10.8,1.7-21.5,3.3-32.3,4.9c-8.4,1.3-16.9,2.6-25.3,3.9
	c-5.2,0.8-10.4,1.6-15.5,2.4c-16.2,2.5-33,5-49.5,7.8c-1.2,0.2-2.2,0.3-3.3,0.4c-3.2,0.4-7.2,0.8-9.9,4.5c-2.1,3-2.5,6.8-2.5,12.9
	c0.1,159.5,0.1,321.6,0.1,478.4l0,110.7l-263.8-3.4V135.1l0-1.4c0-1.1,0-2.3,0-3.4c-0.1-9.4-4.3-13.8-13.5-14.2
	c-10.3-0.5-20.7-0.9-30.8-1.3c-5.6-0.2-11.3-0.4-16.9-0.7l-5.5-0.2c-15.6-0.6-31.3-1.3-46.9-2c-9-0.4-18.1-0.8-27.1-1.2
	c-9.3-0.4-18.7-0.9-28-1.3c-8.8-0.4-17.7-0.7-26.5-1.1c-8.6-0.4-17.2-0.7-25.8-1.1c-9.8-0.4-19.6-0.9-29.5-1.3
	c-8.9-0.4-17.8-0.8-26.6-1.2c-9.4-0.4-18.8-0.8-28.3-1.2c-7.9-0.3-15.8-0.7-23.6-1l-12.3-0.5c-14.5-0.6-29.5-1.3-44.3-2
	c-10.8-0.5-21.3,1.3-30.1,3.2c-25.4,5.5-50.9,11.1-76.3,16.6c-18.6,4.1-37.1,8.1-55.7,12.1c-19.2,4.2-38.3,8.3-57.5,12.5
	c-20.1,4.4-40.3,8.7-60.4,13.1c-10.6,2.3-12.7,5-12.7,15.9l0,43.5c0,50.8,0,101.5,0.1,152.3l0.1,151.8c0.1,142.4,0.1,284.7,0.2,427
	c0,36.4,0.1,73.4,0.2,109.3c0.1,31.7,0.2,64.6,0.2,96.8c0.1,66.4,0.1,133.9,0.1,199.2c0,33.2,0,66.4,0.1,99.6
	c0.1,95,0.1,190.1,0.2,285.1l0.1,71.3c0,10.2,2.6,13.7,12.2,16.4c25.3,7.1,50.6,14.2,75.8,21.3c15.3,4.3,30.6,8.6,45.9,12.9
	c42.9,12.1,87.2,24.6,130.9,36.8c5.9,1.7,12.2,3.2,18.7,3.2c0.4,0,0.7,0,1.1,0c9.4-0.3,18.8-1.2,27.9-2.1c2.8-0.3,5.6-0.6,8.4-0.8
	c7.5-0.7,15-1.4,22.4-2.1c7.6-0.7,15.4-1.5,23.1-2.2c7.3-0.7,14.7-1.3,21.9-1.9c7.8-0.7,15.8-1.3,23.7-2.1c9-0.8,18.2-1.7,27.1-2.6
	c9.4-0.9,19.1-1.9,28.7-2.7c9.1-0.8,18.4-1.6,27.3-2.4c9.4-0.8,19-1.6,28.6-2.5c12.2-1.1,24.5-2.3,36.5-3.5c9.9-1,19.7-1.9,29.6-2.8
	c15.7-1.5,31.4-2.9,47.1-4.3c8-0.7,16.1-1.5,24.1-2.2c6.1-0.6,10.1-0.9,13.1-4.2c2.9-3.2,2.9-7.1,2.9-13.5v-682.4l263.8-2.9l0,601.4
	l0,1.5c0,0.7,0,1.5,0,2.2c0,6.9,3.7,11.4,10.6,12.7c16,3,32.2,6.1,47.8,9.2c6.5,1.3,12.9,2.5,19.4,3.8c26.7,5.2,53.4,10.3,80.1,15.4
	c11.7,2.3,23.4,4.5,35.1,6.8c15.1,2.9,30.3,5.8,45.4,8.7c8.4,1.6,16.7,3.2,25.1,4.8c16.5,3.2,33.6,6.5,50.5,9.7
	c1.2,0.2,2.5,0.5,3.7,0.7c5.4,1.1,11,2.2,16.9,2c13-0.4,26.1-1.3,38.9-2.2c5-0.3,10-0.7,15-1l7.3-0.5c8.8-0.6,17.6-1.1,26.3-1.7
	c7.1-0.5,14.3-0.9,21.4-1.4c10.4-0.7,20.9-1.4,31.3-2c5.4-0.3,10.7-0.7,16.1-1c6.2-0.4,12.3-0.7,18.5-1.1c7.6-0.5,15.2-1,22.8-1.5
	c9.3-0.6,19-1.3,28.5-1.9c8.1-0.5,16.2-1,24.2-1.5c8.6-0.5,17.5-1,26.2-1.6c10.3-0.7,20.7-1.4,31-2.1c11.4-0.8,23.2-1.6,34.8-2.3
	c11.2-0.7,14.9-4.6,15-15.6l0-24.4c0.1-34.5,0.1-69,0.2-103.5l0.2-150.3c0.1-76.6,0.2-153.3,0.4-229.9c0-27.6,0.1-55.3,0.2-82.9
	c0.1-27.6,0.1-55.3,0.2-82.9c0.1-63.9,0.2-127.8,0.3-191.8c0.1-63.9,0.2-127.8,0.3-191.8c0-22.7,0.1-45.4,0.1-68.2
	c0.1-32.8,0.2-66.6,0.2-100c0-60.8,0.1-121.7,0.1-182.5c0-31.7,0-63.5,0-95.2c0-21.6,0-43.1,0-64.7c0-22.3,0-44.6,0-66.9
	C1818.2,158.4,1811.5,155.7,1805.9,155.4z M849.5,1148.3l-6.4,0.1v700.1l-373.5,34.3V117.3l373.2,16.2v675.5l618.3,8.1V157.4
	l339.9,15.3l-2.6,1629.9l-337.1,21.6v-682.7L849.5,1148.3z M1141.4,794.5V205.6l301-46.6v639.3L1141.4,794.5z M450.5,119.8v1759.8
	l-249.9-70.3L199,174.5L450.5,119.8z M1442.5,1160.1V1822l-2-0.4c-6.9-1.3-13.7-2.6-20.5-3.9c-16.8-3.2-33.5-6.5-50.3-9.7
	c-18.2-3.5-36.5-7-54.7-10.5c-17.2-3.3-34.4-6.6-51.7-9.9c-17.6-3.4-35.2-6.8-52.9-10.1c-7.2-1.4-14.4-2.8-21.7-4.2
	c-15.6-3-31.7-6.2-47.6-9.1c0-0.3,0-0.6,0-0.9c0-0.2,0-0.5,0-0.7v-599.2L1442.5,1160.1z"/>
</svg>
