<?xml version="1.0" encoding="UTF-8" standalone="no"?>
<!-- Generator: Adobe Illustrator 22.1.0, SVG Export Plug-In . SVG Version: 6.00 Build 0)  -->

<svg
   version="1.1"
   id="Layer_1"
   x="0px"
   y="0px"
   viewBox="0 0 2000 2000"
   style="enable-background:new 0 0 2000 2000;"
   xml:space="preserve"
   sodipodi:docname="LogoHv4.svg"
   inkscape:version="1.3 (0e150ed, 2023-07-21)"
   xmlns:inkscape="http://www.inkscape.org/namespaces/inkscape"
   xmlns:sodipodi="http://sodipodi.sourceforge.net/DTD/sodipodi-0.dtd"
   xmlns="http://www.w3.org/2000/svg"
   xmlns:svg="http://www.w3.org/2000/svg"><defs
   id="defs1" /><sodipodi:namedview
   id="namedview1"
   pagecolor="#505050"
   bordercolor="#ffffff"
   borderopacity="1"
   inkscape:showpageshadow="0"
   inkscape:pageopacity="0"
   inkscape:pagecheckerboard="1"
   inkscape:deskcolor="#505050"
   inkscape:zoom="0.37340779"
   inkscape:cx="852.95488"
   inkscape:cy="1018.9932"
   inkscape:window-width="1920"
   inkscape:window-height="1080"
   inkscape:window-x="0"
   inkscape:window-y="0"
   inkscape:window-maximized="0"
   inkscape:current-layer="Layer_1" />&#10;<path
   d="M 205.78125,171.09874 V 1810.4054 l 258.9579,71.6763 -4.62428,-1766.47428 z"
   style="enable-background:new 0 0 2000 2000;fill:#99ffff;stroke-width:1.02937;fill-opacity:1"
   id="path9"
   sodipodi:nodetypes="ccccc" /><path
   id="rect9"
   style="fill:#99ffff"
   d="m 478.61273,113.2948 373.95739,17.88802 0.23644,1716.34038 -374.31805,33.4639 z"
   sodipodi:nodetypes="ccccc" /><path
   id="rect10"
   style="fill:#99ffff;stroke-width:1.01009"
   d="m 850.47586,806.68275 632.52174,8.11622 -0.042,324.39233 -631.85239,7.1013 z"
   sodipodi:nodetypes="ccccc" /><path
   id="rect11"
   style="fill:#99ffff"
   d="m 1470.3546,155.0912 339.9023,15.29844 -2.6024,1629.90306 -337.3975,22.0062 z"
   sodipodi:nodetypes="ccccc" /><path
   id="rect12"
   style="fill:#99ffff"
   d="m 1150.6445,202.99451 301.0077,-46.31217 -10e-5,639.3147 -301.0062,-3.80617 z"
   sodipodi:nodetypes="ccccc" /><path
   id="rect13"
   style="fill:#99ffff"
   d="m 1150.3467,1161.0837 301.3989,-3.3051 0.02,661.9138 -301.4154,-57.8062 z"
   sodipodi:nodetypes="ccccc" /><path
   d="m 1815.1485,153.08786 c -13.4,-0.7 -26.9,-1.3 -40.1,-1.8 l -2.1,-0.1 c -7.6,-0.3 -15.1,-0.6 -22.7,-0.9 -9.9,-0.4 -19.8,-0.8 -29.7,-1.3 -9.5,-0.4 -19,-0.9 -28.5,-1.3 -8.4,-0.4 -16.8,-0.8 -25.3,-1.2 -8.3,-0.4 -16.6,-0.7 -24.9,-1.1 -8.4,-0.4 -16.8,-0.7 -25.1,-1.1 -25.2,-1.1 -50.5,-2.3 -75.7,-3.5 -6.1,-0.3 -12.1,-0.6 -18.2,-0.9 -11.5,-0.6 -23.4,-1.2 -35.2,-1.6 -1.8,-0.1 -3.6,-0.2 -5.4,-0.2 -8.8,-0.4 -18,-0.9 -27.3,0.6 -21.1,3.3 -42.3,6.6 -62.2,9.6 -9.4,1.4 -18.9,2.9 -28.4,4.3 -11.8,1.8 -23.5,3.6 -35.3,5.4 -9.8,1.5 -19.6,3.1 -29.3,4.6 -9.4,1.5 -18.8,3 -28.3,4.4 -10.8,1.7 -21.5,3.3 -32.3,4.9 -8.4,1.3 -16.9,2.6 -25.3,3.9 -5.2,0.8 -10.4,1.6 -15.5,2.4 -16.2,2.5 -33,5 -49.5,7.8 -1.2,0.2 -2.2,0.3 -3.3,0.4 -3.2,0.4 -7.2,0.8 -9.9,4.5 -2.1,3 -2.5,6.8 -2.5,12.9 0.1,159.5 0.1,321.6 0.1,478.4 v 110.7 l -263.79994,-3.4 v -656.7 -1.4 c 0,-1.1 0,-2.3 0,-3.4 -0.1,-9.4 -4.3,-13.8 -13.5,-14.2 -10.3,-0.5 -20.7,-0.9 -30.8,-1.3 -5.6,-0.2 -11.3,-0.4 -16.9,-0.7 l -5.5,-0.2 c -15.6,-0.6 -31.3,-1.3 -46.9,-2 -9,-0.4 -18.1,-0.8 -27.1,-1.2 -9.3,-0.4 -18.7,-0.9 -28,-1.3 -8.8,-0.4 -17.7,-0.7 -26.5,-1.1 -8.6,-0.4 -17.2,-0.7 -25.8,-1.1 -9.8,-0.4 -19.6,-0.9 -29.5,-1.3 -8.9,-0.4 -17.8,-0.8 -26.6,-1.2 -9.4,-0.4 -18.8,-0.8 -28.3,-1.2 -7.9,-0.3 -15.8,-0.7 -23.6,-1 l -12.3,-0.499999 c -14.5,-0.6 -29.5,-1.3 -44.3,-2 -10.8,-0.5 -21.3,1.3 -30.1,3.199999 -25.4,5.5 -50.9,11.1 -76.3,16.6 -18.6,4.1 -37.1,8.1 -55.7,12.1 -19.2,4.2 -38.3,8.3 -57.5,12.5 -20.1,4.4 -40.3,8.7 -60.4,13.1 -10.6,2.3 -12.7,5 -12.7,15.9 v 43.5 c 0,50.8 0,101.5 0.1,152.3 l 0.1,151.8 c 0.1,142.4 0.1,284.7 0.2,427 0,36.4 0.1,73.40004 0.2,109.30004 0.1,31.7 0.2,64.6 0.2,96.8 0.1,66.4 0.1,133.9 0.1,199.2 0,33.2 0,66.4 0.1,99.6 0.1,95 0.1,190.1 0.2,285.1 l 0.1,71.3 c 0,10.2 2.6,13.7 12.2,16.4 25.3,7.1 50.6,14.2 75.8,21.3 15.3,4.3 30.6,8.6 45.9,12.9 42.9,12.1 87.2,24.6 130.9,36.8 5.9,1.7 12.2,3.2 18.7,3.2 0.4,0 0.7,0 1.1,0 9.4,-0.3 18.8,-1.2 27.9,-2.1 2.8,-0.3 5.6,-0.6 8.4,-0.8 7.5,-0.7 15,-1.4 22.4,-2.1 7.6,-0.7 15.4,-1.5 23.1,-2.2 7.3,-0.7 14.7,-1.3 21.9,-1.9 7.8,-0.7 15.8,-1.3 23.7,-2.1 9,-0.8 18.2,-1.7 27.1,-2.6 9.4,-0.9 19.1,-1.9 28.7,-2.7 9.1,-0.8 18.4,-1.6 27.3,-2.4 9.4,-0.8 19,-1.6 28.6,-2.5 12.2,-1.1 24.5,-2.3 36.5,-3.5 9.9,-1 19.7,-1.9 29.6,-2.8 15.7,-1.5 31.4,-2.9 47.1,-4.3 8,-0.7 16.1,-1.5 24.1,-2.2 6.1,-0.6 10.1,-0.9 13.1,-4.2 2.9,-3.2 2.9,-7.1 2.9,-13.5 v -682.4 l 263.79994,-2.9 v 601.4 1.5 c 0,0.7 0,1.5 0,2.2 0,6.9 3.7,11.4 10.6,12.7 16,3 32.2,6.1 47.8,9.2 6.5,1.3 12.9,2.5 19.4,3.8 26.7,5.2 53.4,10.3 80.1,15.4 11.7,2.3 23.4,4.5 35.1,6.8 15.1,2.9 30.3,5.8 45.4,8.7 8.4,1.6 16.7,3.2 25.1,4.8 16.5,3.2 33.6,6.5 50.5,9.7 1.2,0.2 2.5,0.5 3.7,0.7 5.4,1.1 11,2.2 16.9,2 13,-0.4 26.1,-1.3 38.9,-2.2 5,-0.3 10,-0.7 15,-1 l 7.3,-0.5 c 8.8,-0.6 17.6,-1.1 26.3,-1.7 7.1,-0.5 14.3,-0.9 21.4,-1.4 10.4,-0.7 20.9,-1.4 31.3,-2 5.4,-0.3 10.7,-0.7 16.1,-1 6.2,-0.4 12.3,-0.7 18.5,-1.1 7.6,-0.5 15.2,-1 22.8,-1.5 9.3,-0.6 19,-1.3 28.5,-1.9 8.1,-0.5 16.2,-1 24.2,-1.5 8.6,-0.5 17.5,-1 26.2,-1.6 10.3,-0.7 20.7,-1.4 31,-2.1 11.4,-0.8 23.2,-1.6 34.8,-2.3 11.2,-0.7 14.9,-4.6 15,-15.6 v -24.4 c 0.1,-34.5 0.1,-69 0.2,-103.5 l 0.2,-150.3 c 0.1,-76.6 0.2,-153.3 0.4,-229.9 0,-27.6 0.1,-55.3 0.2,-82.9 0.1,-27.6 0.1,-55.3 0.2,-82.9 0.1,-63.9 0.2,-127.8 0.3,-191.80004 0.1,-63.9 0.2,-127.8 0.3,-191.8 0,-22.7 0.1,-45.4 0.1,-68.2 0.1,-32.8 0.2,-66.6 0.2,-100 0,-60.8 0.1,-121.7 0.1,-182.5 0,-31.7 0,-63.5 0,-95.2 0,-21.6 0,-43.1 0,-64.7 0,-22.3 0,-44.6 0,-66.9 0.1,-10.8 -6.6,-13.5 -12.2,-13.8 z m -956.39994,992.90004 -6.4,0.1 v 700.1 l -373.5,34.3 V 114.98786 l 373.2,16.2 v 675.5 l 618.29994,8.1 v -659.7 l 339.9,15.3 -2.6,1629.90004 -337.1,21.6 v -682.7 z M 1150.6485,792.18786 v -588.9 l 301,-46.6 v 639.3 z m -690.89994,-674.7 V 1877.2879 l -249.9,-70.3 -1.6,-1634.80004 z M 1451.7485,1157.7879 v 661.9 l -2,-0.4 c -6.9,-1.3 -13.7,-2.6 -20.5,-3.9 -16.8,-3.2 -33.5,-6.5 -50.3,-9.7 -18.2,-3.5 -36.5,-7 -54.7,-10.5 -17.2,-3.3 -34.4,-6.6 -51.7,-9.9 -17.6,-3.4 -35.2,-6.8 -52.9,-10.1 -7.2,-1.4 -14.4,-2.8 -21.7,-4.2 -15.6,-3 -31.7,-6.2 -47.6,-9.1 0,-0.3 0,-0.6 0,-0.9 0,-0.2 0,-0.5 0,-0.7 v -599.2 z"
   id="path1"
   style="fill:#00fff4;fill-opacity:1"
   inkscape:label="path1" />&#10;<path
   style="fill:#8c00ff;fill-opacity:0;stroke-width:2.31214;opacity:1"
   d="m 342.3284,1843.7911 c -60.3321,-17.0531 -115.21795,-32.6113 -121.96856,-34.5737 l -12.27383,-3.5681 0.58127,-816.48234 0.58127,-816.48231 120.23122,-26.17395 c 66.12717,-14.39568 121.53179,-26.1977 123.12139,-26.22672 2.30714,-0.0421 2.89017,176.95185 2.89017,877.40388 0,482.60114 -0.78035,877.37844 -1.7341,877.28274 -0.95376,-0.096 -51.09674,-14.1264 -111.42883,-31.1795 z"
   id="path2" /><path
   style="fill:#8000ff;fill-opacity:0;stroke-width:2.31214"
   d="m 342.3284,1843.7911 c -60.3321,-17.0531 -115.21795,-32.6113 -121.96856,-34.5737 l -12.27383,-3.5681 0.58127,-816.48234 0.58127,-816.48231 120.23122,-26.17395 c 66.12717,-14.39568 121.53179,-26.1977 123.12139,-26.22672 2.30714,-0.0421 2.89017,176.95185 2.89017,877.40388 0,482.60114 -0.78035,877.37844 -1.7341,877.28274 -0.95376,-0.096 -51.09674,-14.1264 -111.42883,-31.1795 z"
   id="path3" /><path
   style="fill:#7f00ff;fill-opacity:0;stroke-width:2.31214"
   d="m 342.3284,1843.7911 c -60.3321,-17.0531 -115.21795,-32.6113 -121.96856,-34.5737 l -12.27383,-3.5681 0.58127,-816.48234 0.58127,-816.48231 120.23122,-26.17395 c 66.12717,-14.39568 121.53179,-26.1977 123.12139,-26.22672 2.30714,-0.0421 2.89017,176.95185 2.89017,877.40388 0,482.60114 -0.78035,877.37844 -1.7341,877.28274 -0.95376,-0.096 -51.09674,-14.1264 -111.42883,-31.1795 z"
   id="path4" /><path
   style="fill:#7200ff;fill-opacity:0;stroke-width:2.31214"
   d="M 478.61272,997.85808 V 115.57996 l 19.07514,1.26986 c 20.06144,1.33552 333.89309,14.94209 344.63505,14.94209 h 6.232 v 337.3354 337.33537 l 30.63584,1.33061 c 16.84971,0.73182 129.47975,2.40037 250.28905,3.70787 120.8092,1.30749 246.4451,3.03662 279.1907,3.84252 l 59.5376,1.46527 V 487.0172 157.22543 l 13.2948,0.0235 c 7.3121,0.0129 80.9248,3.12374 163.5838,6.91292 82.659,3.78918 152.7547,6.89999 155.7683,6.91292 l 5.4792,0.0235 -0.9169,812.58598 c -0.5042,446.92225 -1.62,813.28915 -2.4795,814.14865 -1.4961,1.4961 -301.046,21.6274 -323.747,21.7574 l -10.9827,0.063 V 1478.555 1137.4569 l -75.7226,1.3055 c -97.2305,1.6764 -455.25281,5.7463 -505.48992,5.7463 h -38.44067 v 350.072 350.0721 l -10.98266,1.3798 c -8.67082,1.0894 -263.34389,24.4577 -331.21387,30.3915 -8.26589,0.7227 -17.89017,1.8536 -21.38728,2.5131 l -6.35838,1.199 z"
   id="path5" /><path
   style="fill:#0000ff;fill-opacity:0;stroke-width:2.31214"
   d="m 459.63001,1894.3777 c -38.97343,-10.2474 -263.58845,-74.444 -264.83689,-75.6922 -3.03745,-3.0369 -6.81414,-1647.62104 -3.80169,-1655.47136 1.94343,-5.06449 8.02639,-6.57221 151.2051,-37.47758 l 126.01156,-27.199809 124.85549,5.249769 c 271.01889,11.39547 264.965,11.05463 269.05857,15.14796 3.44983,3.44961 3.82541,32.41778 4.37487,337.42154 l 0.60108,333.64798 78.01163,1.52608 c 42.90641,0.83935 102.72267,1.52775 132.92497,1.5298 l 54.9133,0.004 V 492.43598 191.80837 l 5.2023,-2.24203 c 2.8613,-1.23312 76.9295,-13.25833 164.5962,-26.7227 l 159.3939,-24.48066 159.6812,7.0754 c 198.9493,8.81536 195.9295,8.61184 199.5657,13.44976 3.4539,4.59555 3.625,136.17127 1.35,1038.49876 -1.152,456.9126 -2.2148,611.7949 -4.2167,614.5326 -3.0288,4.1422 -6.0088,4.3858 -223.3377,18.258 l -133.1408,8.4985 -140.8476,-27.0549 c -180.4366,-34.6593 -184.2171,-35.4471 -186.3678,-38.8328 -0.9944,-1.5654 -1.8236,-140.1871 -1.8428,-308.0484 l -0.035,-305.2023 -100.0005,0.5684 c -55.00029,0.3126 -114.81708,1.2006 -132.92616,1.9733 l -32.92567,1.405 -0.60035,345.3431 c -0.5378,309.3557 -0.97646,345.7192 -4.20931,348.9519 -3.89323,3.893 -8.54754,4.3856 -250.72632,26.5384 -120.5642,11.0283 -142.67896,12.4926 -151.93068,10.06 z m 212.80511,-30.8848 c 97.06474,-8.8517 176.92023,-16.0941 177.45665,-16.0941 0.53639,0 0.97528,-157.63 0.97528,-350.289 v -350.289 h 25.30759 c 42.02548,0 425.62426,-4.339 511.68666,-5.7878 l 80.3468,-1.3526 v 341.1425 341.1424 l 9.8266,-0.045 c 19.7838,-0.091 325.9174,-20.477 327.2309,-21.7905 0.7456,-0.7456 1.8253,-368.1029 2.3994,-816.34945 l 1.0439,-814.99382 -7.8227,-0.0235 c -4.3024,-0.0129 -75.4527,-3.12374 -158.1116,-6.91292 -82.659,-3.78918 -156.2717,-6.89999 -163.5838,-6.91291 l -13.2948,-0.0235 v 329.8152 329.81519 l -58.3815,-1.46271 c -32.1099,-0.80448 -163.9885,-2.56328 -293.0636,-3.90846 -129.07518,-1.34516 -241.185,-3.00162 -249.13298,-3.68102 l -14.45087,-1.23528 V 466.868 129.47977 h -8.0671 c -12.11646,0 -325.42763,-13.47293 -347.42423,-14.93986 l -19.07514,-1.27209 v 884.36233 884.36235 l 9.82659,-1.2028 c 5.40462,-0.6616 89.24319,-8.4451 186.30795,-17.2968 z M 457.80347,996.77757 V 116.09848 l -8.67052,1.92984 c -4.76879,1.06141 -59.65318,12.97153 -121.96532,26.46692 -62.31214,13.4954 -115.11561,25.07204 -117.34104,25.72587 -3.8437,1.12927 -4.04624,42.1496 -4.04624,819.48603 v 818.29726 l 5.20231,1.3343 c 2.86127,0.7339 57.74566,16.2464 121.96532,34.4723 64.21965,18.2258 118.58381,33.2521 120.80925,33.3918 3.84693,0.2413 4.04624,-43.128 4.04624,-880.42523 z M 1449.711,1488.1408 v -331.5124 l -106.9364,0.9212 c -58.8151,0.5067 -126.9654,1.535 -151.4451,2.2852 l -44.5087,1.3641 0.014,300.9034 0.014,300.9035 145.073,28.0413 c 79.7901,15.4228 147.9342,28.1684 151.4313,28.3237 l 6.3584,0.2824 z m 0,-1012.0876 c 0,-256.31704 -0.587,-321.42494 -2.8902,-320.60201 -1.5896,0.56795 -69.7399,11.33863 -151.4451,23.93485 l -148.5549,22.90221 v 295.38766 295.38767 l 29.4798,0.33277 c 39.5517,0.44645 225.1828,3.27558 252.0231,3.84099 l 21.3873,0.45052 z"
   id="path6" /><path
   style="fill:#0000ff;fill-opacity:0;stroke-width:2.31214"
   d="m 342.3284,1843.7911 c -60.3321,-17.0531 -115.21795,-32.6113 -121.96856,-34.5737 l -12.27383,-3.5681 0.58127,-816.48234 0.58127,-816.48231 120.23122,-26.17395 c 66.12717,-14.39568 121.53179,-26.1977 123.12139,-26.22672 2.30714,-0.0421 2.89017,176.95185 2.89017,877.40388 0,482.60114 -0.78035,877.37844 -1.7341,877.28274 -0.95376,-0.096 -51.09674,-14.1264 -111.42883,-31.1795 z"
   id="path7" /></svg>
