<?xml version="1.0" standalone="no"?>
<!DOCTYPE svg PUBLIC "-//W3C//DTD SVG 20010904//EN"
 "http://www.w3.org/TR/2001/REC-SVG-20010904/DTD/svg10.dtd">
<svg
   version="1.1"
   width="559pt" 
   height="897pt"
   viewBox="0 0 559 897"
   xmlns="http://www.w3.org/2000/svg"
   preserveAspectRatio="xMidYMid meet"
>
   <g transform="translate(0.000000,897.000000) scale(0.100000,-0.100000)"
fill="#000000" stroke="none"> 
      <path
      d="m 1354.8043,379.06332 c -6.1041,-0.46512 -12.2537,-0.86379 -18.2666,-1.19602 l -0.9566,-0.0664 c -3.462,-0.19933 -6.8785,-0.39866 -10.3405,-0.598 -4.5097,-0.26577 -9.0194,-0.53156 -13.5291,-0.86378 -4.3275,-0.26578 -8.655,-0.598 -12.9825,-0.86379 -3.8265,-0.26577 -7.6529,-0.53156 -11.5249,-0.79733 -3.7808,-0.26579 -7.5617,-0.46512 -11.3426,-0.7309 -3.8264,-0.26578 -7.6528,-0.46512 -11.4337,-0.7309 -11.4793,-0.7309 -23.0041,-1.52823 -34.4834,-2.32558 -2.7787,-0.19933 -5.5119,-0.39866 -8.2906,-0.598 -5.2385,-0.39866 -10.6593,-0.79734 -16.0345,-1.06312 -0.82,-0.0664 -1.6399,-0.13293 -2.4599,-0.13293 -4.0086,-0.26577 -8.1994,-0.598 -12.4358,0.39867 -9.6116,2.19269 -19.2688,4.38537 -28.3338,6.37873 -4.282,0.93023 -8.6095,1.92689 -12.937,2.85713 -5.3752,1.196 -10.7048,2.39202 -16.08,3.58803 -4.4642,0.99668 -8.9284,2.0598 -13.347,3.05647 -4.2819,0.99668 -8.5639,1.99336 -12.8914,2.92358 -4.9197,1.12956 -9.7938,2.19268 -14.7135,3.2558 -3.8264,0.86379 -7.6984,1.72758 -11.5248,2.59136 -2.3688,0.53156 -4.7375,1.06312 -7.0607,1.59468 -7.3795,1.66112 -15.0324,3.32226 -22.5486,5.18271 -0.5466,0.13293 -1.0021,0.19933 -1.5032,0.26579 -1.4577,0.26577 -3.2798,0.53156 -4.5097,2.99002 -0.9566,1.99335 -1.1388,4.51826 -1.1388,8.5714 0.046,105.9798 0.046,213.68716 0.046,317.87295 v 73.55463 l -120.16801,-2.25914 v -436.3444 -0.93022 c 0,-0.7309 0,-1.52824 0,-2.25914 -0.0456,-6.24582 -1.95876,-9.16941 -6.14961,-9.43518 -4.69193,-0.33223 -9.42941,-0.59802 -14.03022,-0.86379 -2.55095,-0.13293 -5.14746,-0.26579 -7.6984,-0.46512 l -2.5054,-0.13293 c -7.10622,-0.39868 -14.25799,-0.86379 -21.3642,-1.32891 -4.09975,-0.26577 -8.24504,-0.53156 -12.34478,-0.79735 -4.2364,-0.26577 -8.51836,-0.598 -12.75476,-0.86377 -4.00862,-0.26579 -8.06281,-0.46512 -12.07145,-0.73091 -3.91754,-0.26577 -7.83506,-0.4651 -11.75259,-0.73089 -4.46416,-0.26577 -8.92832,-0.598 -13.43804,-0.86379 -4.05419,-0.26577 -8.10837,-0.53156 -12.11701,-0.79733 -4.28195,-0.26579 -8.5639,-0.53156 -12.8914,-0.79735 -3.59867,-0.19933 -7.19732,-0.4651 -10.75044,-0.66444 l -5.60298,-0.33222 c -6.60513,-0.39867 -13.43804,-0.86379 -20.17984,-1.3289 -4.91968,-0.33223 -9.70271,0.86378 -13.71135,2.12623 -11.57038,3.65448 -23.1863,7.3754 -34.75669,11.02988 -8.4728,2.72424 -16.90004,5.38204 -25.37284,8.03984 -8.74611,2.79069 -17.44667,5.51493 -26.19279,8.30563 -9.15608,2.92358 -18.35772,5.78072 -27.51381,8.70429 -4.82859,1.52824 -5.78519,3.32225 -5.78519,10.56476 v 28.90359 c 0,33.75406 0,67.44168 0.0456,101.19574 l 0.0456,100.86354 c 0.0456,94.6177 0.0456,189.16896 0.0911,283.72021 0,24.18597 0.0456,48.77064 0.0911,72.6244 0.0456,21.06307 0.0911,42.92345 0.0911,64.31875 0.0456,44.1195 0.0456,88.9699 0.0456,132.3585 0,22.0597 0,44.1195 0.0456,66.1792 0.0456,63.1228 0.0456,126.3119 0.0911,189.4347 l 0.0456,47.3753 c 0,6.7774 1.18437,9.103 5.55742,10.897 11.52483,4.7176 23.04966,9.4352 34.52892,14.1528 6.96957,2.8571 13.93913,5.7142 20.90869,8.5714 19.54209,8.0398 39.72193,16.3454 59.62845,24.4517 2.6876,1.1296 5.55743,2.1263 8.51835,2.1263 0.18221,0 0.31886,0 0.50108,0 4.28195,-0.1994 8.56391,-0.7974 12.7092,-1.3954 1.27547,-0.1993 2.55095,-0.3986 3.82641,-0.5315 3.41646,-0.4651 6.83291,-0.9303 10.2038,-1.3954 3.462,-0.4651 7.01512,-0.9967 10.52267,-1.4618 3.32535,-0.4651 6.69625,-0.8637 9.97604,-1.2624 3.55311,-0.4651 7.19732,-0.8638 10.79599,-1.3954 4.09973,-0.5315 8.29058,-1.1295 12.34477,-1.7275 4.28195,-0.598 8.70056,-1.2625 13.07361,-1.794 4.1453,-0.5316 8.3817,-1.0632 12.43589,-1.5947 4.28194,-0.5316 8.65501,-1.0631 13.02806,-1.6612 5.55743,-0.7309 11.1604,-1.5282 16.62672,-2.3255 4.50972,-0.6645 8.97388,-1.2625 13.4836,-1.8605 7.15176,-0.9967 14.30354,-1.9269 21.45531,-2.8571 3.64421,-0.4651 7.33397,-0.9967 10.97819,-1.4618 2.77872,-0.3987 4.60083,-0.598 5.9674,-2.7907 1.32103,-2.1263 1.32103,-4.7176 1.32103,-8.9701 v -453.4207 l 120.168,-1.9269 v 399.6003 0.9967 c 0,0.4651 0,0.9966 0,1.4618 0,4.5847 1.6854,7.5747 4.8285,8.4385 7.2885,1.9933 14.668,4.0531 21.7742,6.1129 2.9609,0.8638 5.8763,1.6611 8.8372,2.5249 12.1626,3.4552 24.3252,6.8439 36.4877,10.2326 5.3297,1.5282 10.6594,2.99 15.989,4.5182 6.8785,1.9269 13.8025,3.8538 20.6809,5.7807 3.8265,1.0632 7.6073,2.1263 11.4338,3.1894 7.5161,2.1262 15.3057,4.3189 23.0041,6.4452 0.5466,0.1329 1.1388,0.3322 1.6854,0.4651 2.4599,0.7309 5.0108,1.4618 7.6984,1.3289 5.9219,-0.2658 11.8893,-0.8638 17.72,-1.4618 2.2776,-0.1994 4.5553,-0.4651 6.8329,-0.6645 l 3.3254,-0.3322 c 4.0086,-0.3987 8.0172,-0.7309 11.9803,-1.1296 3.2342,-0.3322 6.514,-0.598 9.7483,-0.9302 4.7374,-0.4651 9.5205,-0.9302 14.258,-1.3289 2.4598,-0.1993 4.8741,-0.4651 7.3339,-0.6644 2.8243,-0.2658 5.603,-0.4652 8.4273,-0.7309 3.462,-0.3323 6.924,-0.6645 10.386,-0.9967 4.2364,-0.3987 8.655,-0.8638 12.9825,-1.2625 3.6898,-0.3322 7.3795,-0.6644 11.0237,-0.9966 3.9176,-0.3323 7.9718,-0.6645 11.9348,-1.0632 4.692,-0.4651 9.4295,-0.9302 14.1214,-1.3953 5.193,-0.5316 10.5682,-1.0631 15.8523,-1.5282 5.1019,-0.4652 6.7874,-3.0565 6.8329,-10.3655 v -16.2125 c 0.046,-22.9236 0.046,-45.8471 0.091,-68.7706 l 0.091,-99.8668 c 0.046,-50.8969 0.091,-101.8602 0.1822,-152.7571 0,-18.3388 0.046,-36.7441 0.091,-55.0829 0.046,-18.3389 0.046,-36.7441 0.091,-55.083 0.046,-42.45832 0.091,-84.91668 0.1367,-127.44149 0.046,-42.45836 0.091,-84.91673 0.1366,-127.44153 0,-15.08303 0.046,-30.16604 0.046,-45.31551 0.046,-21.79396 0.091,-44.25237 0.091,-66.44501 0,-40.39856 0.046,-80.86358 0.046,-121.26215 0,-21.06307 0,-42.19259 0,-63.25565 0,-14.35212 0,-28.6378 0,-42.98992 0,-14.81724 0,-29.63448 0,-44.45172 0.046,-7.17606 -3.0065,-8.97007 -5.5574,-9.1694 z m -435.66579,659.73258 -2.91537,0.066 v 465.1815 l -170.13923,22.7906 V 353.74776 l 170.00257,10.76409 v 448.83607 l 281.65222,5.38204 V 380.39221 l 154.8335,10.16609 -1.1844,1082.9872 -153.558,14.3521 v -453.62 z M 1052.1068,803.71338 V 412.4187 l 137.1135,-30.96337 V 806.2383 Z M 737.38334,355.40889 V 1524.7082 l -113.83613,-46.7109 -0.72884,-1086.243 z m 451.88256,691.22751 v 439.7995 l -0.9111,-0.2658 c -3.1431,-0.8638 -6.2407,-1.7276 -9.3383,-2.5914 -7.6528,-2.1262 -15.2601,-4.3189 -22.913,-6.4452 -8.2906,-2.3255 -16.6267,-4.6511 -24.9173,-6.9767 -7.835,-2.1927 -15.6701,-4.3853 -23.5507,-6.578 -8.0173,-2.2592 -16.0346,-4.5183 -24.0974,-6.711 -3.2798,-0.9302 -6.5596,-1.8604 -9.8849,-2.7907 -7.1062,-1.9933 -14.4402,-4.1196 -21.6831,-6.0465 0,-0.1993 0,-0.3986 0,-0.598 0,-0.1329 0,-0.3322 0,-0.4651 v -398.1384 z" 
      />
   </g>
</svg>